<svg width="800" height="800" xmlns="http://www.w3.org/2000/svg"><defs><clipPath clipPathUnits="userSpaceOnUse" id="a"><path d="M0 600h600V0H0Z"/></clipPath></defs><path d="m0 0-48.016-48.015 44.319-89.149 48.016 48.016z" style="fill:gray;fill-opacity:1;fill-rule:evenodd;stroke:none" transform="matrix(1.33333 0 0 -1.33333 217.292 45.888)"/><path d="m0 0-8.98-8.981 44.32-89.146 8.977 8.978z" style="fill:#6e6e6e;fill-opacity:1;fill-rule:evenodd;stroke:none" transform="matrix(1.33333 0 0 -1.33333 210.837 52.342)"/><g clip-path="url(#a)" transform="matrix(1.33333 0 0 -1.33333 0 800)"><path d="M0 0c-2.99-2.991-5.984-5.987-8.977-8.978C5.797-38.694 20.568-68.41 35.343-98.127c2.993 2.993 5.984 5.987 8.977 8.978A922425.94 922425.94 0 0 1 0 0" style="fill:#6e6e6e;fill-opacity:1;fill-rule:evenodd;stroke:none" transform="translate(143.448 546.064)"/><path d="m0 0-8.98-8.977 44.32-89.147 8.978 8.978z" style="fill:#6e6e6e;fill-opacity:1;fill-rule:evenodd;stroke:none" transform="translate(128.774 531.388)"/><path d="M0 0c-2.771-2.769-2.771-7.301-.002-10.069l23.68-23.678c2.768-2.769 7.301-2.769 10.071 0l20.566 20.566c2.769 2.771 2.769 7.303 0 10.072L30.638 20.57c-2.769 2.769-7.301 2.769-10.073-.002zm-17.521-6.191 44.28 44.279L62.674 2.174c5.04-5.038 5.04-13.281 0-18.321L36.716-42.105c-5.041-5.041-13.283-5.041-18.323 0z" style="fill:#999;fill-opacity:1;fill-rule:evenodd;stroke:none" transform="translate(278.91 336.23)"/><path d="m0 0 58.617 58.617c3.216 3.219 3.216 8.483 0 11.701l-7.976 7.976a8.26 8.26 0 0 1-6.001 2.412c-5.284-.096-9.864 1.754-13.599 5.49l-2.278 2.279c-3.739 3.735-5.588 8.315-5.493 13.598a8.239 8.239 0 0 1-2.41 6L-2.007 130.94c-3.218 3.218-27.891 22.627-31.109 19.412l-58.618-58.619c-3.216-3.217 16.192-27.891 19.411-31.109l22.867-22.867a8.237 8.237 0 0 1 6-2.41c5.283.094 9.863-1.755 13.599-5.492l2.278-2.279c3.735-3.736 5.585-8.315 5.49-13.598a8.253 8.253 0 0 1 2.412-6.001L-11.702 0C-8.483-3.216-3.219-3.216 0 0" style="fill:#333;fill-opacity:1;fill-rule:evenodd;stroke:none" transform="translate(247.694 329.397)"/><path d="M0 0a19.373 19.373 0 0 1 3.02-3.867l2.279-2.28c3.736-3.737 8.315-5.586 13.598-5.492a8.244 8.244 0 0 0 6.001-2.41l22.868-22.866c3.217-3.219 22.626-27.892 19.41-31.11L8.559-126.643c-3.219-3.215-27.892 16.193-31.111 19.411l-22.867 22.867a8.246 8.246 0 0 0-2.41 6c.096 5.284-1.754 9.863-5.491 13.598l-2.28 2.28a19.532 19.532 0 0 1-3.867 3.022z" style="fill:#333;fill-opacity:1;fill-rule:evenodd;stroke:none" transform="translate(394.126 301.05)"/><path d="m0 0 58.618 58.617c3.218 3.219 8.484 3.217 11.699 0l7.977-7.976a8.252 8.252 0 0 0 2.41-6.001c-.093-5.283 1.755-9.863 5.49-13.599l2.279-2.278c3.738-3.736 8.317-5.585 13.6-5.49a8.25 8.25 0 0 0 6.001-2.413l22.867-22.866c3.216-3.216 22.626-27.892 19.411-31.11L91.734-91.731c-3.218-3.218-27.891 16.19-31.11 19.408L37.757-49.456a8.252 8.252 0 0 0-2.412 6c.095 5.284-1.754 9.863-5.49 13.599l-2.279 2.279c-3.735 3.735-8.315 5.587-13.598 5.492a8.238 8.238 0 0 0-6 2.41L0-11.699C-3.218-8.483-3.218-3.218 0 0" style="fill:#4d4d4d;fill-opacity:1;fill-rule:evenodd;stroke:none" transform="translate(322.434 254.657)"/><path d="m0 0 47.843 47.845c3.216 3.215 8.476 3.215 11.689 0h.003c3.213-3.214 3.213-8.475 0-11.688L11.688-11.688c-3.213-3.218-8.474-3.218-11.688 0C-3.216-8.475-3.216-3.214 0 0" style="fill:#424242;fill-opacity:1;fill-rule:evenodd;stroke:none" transform="translate(330.034 257.83)"/><path d="m0 0 52.379 52.379a4.27 4.27 0 0 0 6.018 0l4.535-4.534a4.27 4.27 0 0 0 0-6.019L10.553-10.553a4.27 4.27 0 0 0-6.019 0L0-6.019A4.269 4.269 0 0 0 0 0" style="fill:#c30;fill-opacity:1;fill-rule:evenodd;stroke:none" transform="translate(328.335 254.995)"/><path d="m0 0-44.281-44.279-3.625 3.622a2.79 2.79 0 0 0 0 3.932L-7.56 3.625a2.796 2.796 0 0 0 3.936 0z" style="fill:#701c00;fill-opacity:1;fill-rule:evenodd;stroke:none" transform="translate(387.218 292.772)"/><path d="m0 0-3.552 3.046c-1.335 1.143-2.29 2.95-.377 4.875l40.183 40.436c1.294 1.303 3.92 1.816 5.34-.224l2.687-3.854-3.624 3.625a2.795 2.795 0 0 1-3.935 0L-3.625 7.555a2.792 2.792 0 0 1 0-3.933z" style="fill:#a32900;fill-opacity:1;fill-rule:evenodd;stroke:none" transform="translate(342.937 248.493)"/><path d="m0 0 35.708 35.71c2.597 2.597 6.843 2.595 9.438 0L74.72 6.137c2.596-2.596 2.596-6.842 0-9.437L39.01-39.009c-2.594-2.596-6.84-2.596-9.437 0L0-9.436C-2.594-6.84-2.594-2.594 0 0" style="fill:#333;fill-opacity:1;fill-rule:evenodd;stroke:none" transform="translate(376.424 223.574)"/><path d="m0 0 35.708 35.71c2.597 2.595 6.843 2.595 9.438 0L71.259 9.598c2.596-2.596 2.596-6.842 0-9.439L35.552-35.548c-2.597-2.597-6.843-2.597-9.44 0L0-9.436C-2.594-6.84-2.594-2.594 0 0" style="fill:#212121;fill-opacity:1;fill-rule:evenodd;stroke:none" transform="translate(376.424 223.574)"/><path d="m0 0 58.617 58.617c3.219 3.216 3.219 8.482 0 11.699l-7.976 7.977a8.267 8.267 0 0 1-6.001 2.413c-5.281-.096-9.863 1.752-13.599 5.487l-2.278 2.279c-3.738 3.735-5.585 8.317-5.49 13.598a8.261 8.261 0 0 1-2.41 6.003L-2.004 130.94c-3.219 3.216-27.894 22.626-31.11 19.411l-58.62-58.621c-3.215-3.215 16.195-27.891 19.411-31.109l22.867-22.867a8.26 8.26 0 0 1 6.003-2.41c5.28.095 9.862-1.752 13.599-5.49l2.278-2.279c3.735-3.735 5.583-8.317 5.487-13.598a8.264 8.264 0 0 1 2.412-6L-11.699 0C-8.481-3.219-3.216-3.219 0 0" style="fill:#4d4d4d;fill-opacity:1;fill-rule:evenodd;stroke:none" transform="translate(257.21 319.882)"/><path d="m0 0 35.71 35.707c2.595 2.597 6.843 2.597 9.436 0L74.72 6.132c2.596-2.594 2.596-6.84 0-9.437L39.013-39.012c-2.597-2.596-6.843-2.596-9.437 0L0-9.438C-2.596-6.845-2.596-2.597 0 0" style="fill:#333;fill-opacity:1;fill-rule:evenodd;stroke:none" transform="translate(187.117 412.884)"/><path d="m0 0 35.708 35.707c2.597 2.597 6.845 2.597 9.438 0L71.259 9.595c2.596-2.596 2.596-6.845 0-9.439L35.554-35.551c-2.597-2.596-6.845-2.596-9.442 0L0-9.441C-2.594-6.845-2.596-2.597 0 0" style="fill:#212121;fill-opacity:1;fill-rule:evenodd;stroke:none" transform="translate(187.117 412.884)"/><path d="M0 0c-2.771-2.769-2.771-7.304 0-10.072l23.675-23.677c2.77-2.772 7.303-2.772 10.071 0l20.569 20.567c2.771 2.77 2.771 7.301 0 10.073L30.638 20.565c-2.769 2.772-7.304 2.772-10.073 0zm-17.52-6.196 44.281 44.282L62.673 2.174c5.038-5.038 5.038-13.285 0-18.323L36.715-42.107c-5.038-5.039-13.285-5.039-18.323 0z" style="fill:#ccc;fill-opacity:1;fill-rule:evenodd;stroke:none" transform="translate(281.9 333.244)"/><path d="m0 0-.922-.921c-5.038-5.038-13.285-5.038-18.323 0l-.999.998-6.486 20.128 12.768-12.768c2.771-2.771 7.303-2.771 10.071 0l1.131 1.13zm14.592 14.593L3.969 3.97l-2.76 8.567 10.621 10.62Zm-32.594 57.554 7.126 7.126 6.822-6.823 6.487-20.13-9.432 9.432c-2.182 2.184-5.456 2.646-8.103 1.392zM-37.26 52.888l15.291 15.291 2.76-8.565-15.292-15.292z" style="fill:#dedede;fill-opacity:1;fill-rule:evenodd;stroke:none" transform="translate(319.536 292.058)"/><path d="m0 0-6.449 6.45c-3.528 3.527-3.528 9.274 0 12.8l47.104 47.104c3.518 3.521 9.283 3.521 12.8 0l6.449-6.449c1.985-1.981-3.962-7.927-5.945-5.946l-6.45 6.452a.644.644 0 0 1-.91 0L-.506 13.304a.657.657 0 0 1 0-.908l6.452-6.45C7.925 3.963 1.981-1.983 0 0" style="fill:#ccc;fill-opacity:1;fill-rule:evenodd;stroke:none" transform="translate(160.233 415.57)"/><path d="m0 0 48.015 48.015 66.734-66.733-48.016-48.015Z" style="fill:#999;fill-opacity:1;fill-rule:evenodd;stroke:none" transform="translate(419.469 168.225)"/><path d="m0 0 8.978 8.979 66.734-66.734-8.979-8.978z" style="fill:gray;fill-opacity:1;fill-rule:evenodd;stroke:none" transform="translate(424.31 173.065)"/><path d="M0 0c2.993 2.991 5.987 5.987 8.978 8.979l66.736-66.734c-2.994-2.993-5.987-5.987-8.981-8.978L0 0" style="fill:gray;fill-opacity:1;fill-rule:evenodd;stroke:none" transform="translate(438.986 187.744)"/><path d="m0 0 8.98 8.979 66.734-66.734-8.979-8.978z" style="fill:gray;fill-opacity:1;fill-rule:evenodd;stroke:none" transform="translate(453.663 202.42)"/><path d="m0 0 48.015 48.016 89.148-44.321L89.146-44.32Z" style="fill:#999;fill-opacity:1;fill-rule:evenodd;stroke:none" transform="translate(70.125 472.74)"/><path d="m0 0 8.98 8.979L98.127-35.34l-8.979-8.977Z" style="fill:gray;fill-opacity:1;fill-rule:evenodd;stroke:none" transform="translate(74.966 477.581)"/><path d="M0 0c2.991 2.991 5.986 5.985 8.978 8.979C38.694-5.796 68.41-20.57 98.127-35.342c-2.996-2.993-5.987-5.987-8.981-8.98C59.433-29.548 29.716-14.773 0 0" style="fill:gray;fill-opacity:1;fill-rule:evenodd;stroke:none" transform="translate(89.644 492.26)"/><path d="m0 0 8.977 8.98 89.147-44.32-8.978-8.978z" style="fill:gray;fill-opacity:1;fill-rule:evenodd;stroke:none" transform="translate(104.321 506.935)"/></g></svg>