<?xml version="1.0" encoding="UTF-8" standalone="no"?>
<!-- Created with Inkscape (http://www.inkscape.org/) -->

<svg
   version="1.1"
   id="svg113449"
   width="800"
   height="800"
   viewBox="0 0 800 800"
   sodipodi:docname="fasten-belt-pdv.svg"
   inkscape:version="1.2 (dc2aedaf03, 2022-05-15)"
   xmlns:inkscape="http://www.inkscape.org/namespaces/inkscape"
   xmlns:sodipodi="http://sodipodi.sourceforge.net/DTD/sodipodi-0.dtd"
   xmlns="http://www.w3.org/2000/svg"
   xmlns:svg="http://www.w3.org/2000/svg">
  <defs
     id="defs113453">
    <clipPath
       clipPathUnits="userSpaceOnUse"
       id="clipPath113473">
      <path
         d="M 0,600 H 600 V 0 H 0 Z"
         id="path113471" />
    </clipPath>
  </defs>
  <sodipodi:namedview
     id="namedview113451"
     pagecolor="#ffffff"
     bordercolor="#000000"
     borderopacity="0.25"
     inkscape:showpageshadow="2"
     inkscape:pageopacity="0.0"
     inkscape:pagecheckerboard="0"
     inkscape:deskcolor="#d1d1d1"
     showgrid="false"
     inkscape:zoom="1.04625"
     inkscape:cx="400"
     inkscape:cy="400.4779"
     inkscape:window-width="1920"
     inkscape:window-height="1017"
     inkscape:window-x="-8"
     inkscape:window-y="-8"
     inkscape:window-maximized="1"
     inkscape:current-layer="g113457">
    <inkscape:page
       x="0"
       y="0"
       id="page113455"
       width="800"
       height="800" />
  </sodipodi:namedview>
  <g
     id="g113457"
     inkscape:groupmode="layer"
     inkscape:label="Page 1"
     transform="matrix(1.3333333,0,0,-1.3333333,0,800)">
    <g
       id="g113459"
       transform="translate(162.9688,565.584)">
      <path
         d="m 0,0 -48.016,-48.015 44.319,-89.149 48.016,48.016 z"
         style="fill:#808080;fill-opacity:1;fill-rule:evenodd;stroke:none"
         id="path113461" />
    </g>
    <g
       id="g113463"
       transform="translate(158.1279,560.7432)">
      <path
         d="m 0,0 -8.98,-8.981 44.32,-89.146 8.977,8.978 z"
         style="fill:#6e6e6e;fill-opacity:1;fill-rule:evenodd;stroke:none"
         id="path113465" />
    </g>
    <g
       id="g113467">
      <g
         id="g113469"
         clip-path="url(#clipPath113473)">
        <g
           id="g113475"
           transform="translate(143.4482,546.0645)">
          <path
             d="m 0,0 c -2.99,-2.991 -5.984,-5.987 -8.977,-8.978 14.774,-29.716 29.545,-59.432 44.32,-89.149 2.993,2.993 5.984,5.987 8.977,8.978 C 29.549,-59.433 14.775,-29.716 0,0"
             style="fill:#6e6e6e;fill-opacity:1;fill-rule:evenodd;stroke:none"
             id="path113477" />
        </g>
        <g
           id="g113479"
           transform="translate(128.7744,531.3877)">
          <path
             d="m 0,0 -8.98,-8.977 44.32,-89.147 8.978,8.978 z"
             style="fill:#6e6e6e;fill-opacity:1;fill-rule:evenodd;stroke:none"
             id="path113481" />
        </g>
        <g
           id="g113483"
           transform="translate(278.9102,336.2305)">
          <path
             d="m 0,0 c -2.771,-2.769 -2.771,-7.301 -0.002,-10.069 l 23.68,-23.678 c 2.768,-2.769 7.301,-2.769 10.071,0 l 20.566,20.566 c 2.769,2.771 2.769,7.303 0,10.072 L 30.638,20.57 c -2.769,2.769 -7.301,2.769 -10.073,-0.002 z M -17.521,-6.191 26.759,38.088 62.674,2.174 c 5.04,-5.038 5.04,-13.281 0,-18.321 L 36.716,-42.105 c -5.041,-5.041 -13.283,-5.041 -18.323,0 z"
             style="fill:#999999;fill-opacity:1;fill-rule:evenodd;stroke:none"
             id="path113485" />
        </g>
        <g
           id="g113487"
           transform="translate(247.6943,329.3975)">
          <path
             d="m 0,0 58.617,58.617 c 3.216,3.219 3.216,8.483 0,11.701 l -7.976,7.976 c -1.649,1.647 -3.831,2.45 -6.001,2.412 -5.284,-0.096 -9.864,1.754 -13.599,5.49 l -2.278,2.279 c -3.739,3.735 -5.588,8.315 -5.493,13.598 0.042,2.169 -0.764,4.355 -2.41,6 L -2.007,130.94 c -3.218,3.218 -27.891,22.627 -31.109,19.412 L -91.734,91.733 c -3.216,-3.217 16.192,-27.891 19.411,-31.109 l 22.867,-22.867 c 1.647,-1.648 3.83,-2.451 6,-2.41 5.283,0.094 9.863,-1.755 13.599,-5.492 l 2.278,-2.279 c 3.735,-3.736 5.585,-8.315 5.49,-13.598 -0.039,-2.17 0.765,-4.354 2.412,-6.001 L -11.702,0 C -8.483,-3.216 -3.219,-3.216 0,0"
             style="fill:#333333;fill-opacity:1;fill-rule:evenodd;stroke:none"
             id="path113489" />
        </g>
        <g
           id="g113491"
           transform="translate(394.126,301.0498)">
          <path
             d="m 0,0 c 0.808,-1.373 1.818,-2.665 3.02,-3.867 l 2.279,-2.28 c 3.736,-3.737 8.315,-5.586 13.598,-5.492 2.17,0.041 4.356,-0.764 6.001,-2.41 l 22.868,-22.866 c 3.217,-3.219 22.626,-27.892 19.41,-31.11 L 8.559,-126.643 c -3.219,-3.215 -27.892,16.193 -31.111,19.411 l -22.867,22.867 c -1.647,1.647 -2.45,3.831 -2.41,6 0.096,5.284 -1.754,9.863 -5.491,13.598 l -2.28,2.28 c -1.202,1.202 -2.494,2.21 -3.867,3.022 z"
             style="fill:#333333;fill-opacity:1;fill-rule:evenodd;stroke:none"
             id="path113493" />
        </g>
        <g
           id="g113495"
           transform="translate(322.4336,254.6572)">
          <path
             d="m 0,0 58.618,58.617 c 3.218,3.219 8.484,3.217 11.699,0 l 7.977,-7.976 c 1.645,-1.648 2.451,-3.831 2.41,-6.001 -0.093,-5.283 1.755,-9.863 5.49,-13.599 l 2.279,-2.278 c 3.738,-3.736 8.317,-5.585 13.6,-5.49 2.17,0.038 4.354,-0.764 6.001,-2.413 l 22.867,-22.866 c 3.216,-3.216 22.626,-27.892 19.411,-31.11 L 91.734,-91.731 c -3.218,-3.218 -27.891,16.19 -31.11,19.408 l -22.867,22.867 c -1.648,1.647 -2.45,3.831 -2.412,6 0.095,5.284 -1.754,9.863 -5.49,13.599 l -2.279,2.279 c -3.735,3.735 -8.315,5.587 -13.598,5.492 -2.169,-0.041 -4.353,0.762 -6,2.41 L 0,-11.699 C -3.218,-8.483 -3.218,-3.218 0,0"
             style="fill:#4d4d4d;fill-opacity:1;fill-rule:evenodd;stroke:none"
             id="path113497" />
        </g>
        <g
           id="g113499"
           transform="translate(330.0342,257.8301)">
          <path
             d="m 0,0 47.843,47.845 c 3.216,3.215 8.476,3.215 11.689,0 h 0.003 c 3.213,-3.214 3.213,-8.475 0,-11.688 L 11.688,-11.688 C 8.475,-14.906 3.214,-14.906 0,-11.688 -3.216,-8.475 -3.216,-3.214 0,0"
             style="fill:#424242;fill-opacity:1;fill-rule:evenodd;stroke:none"
             id="path113501" />
        </g>
        <g
           id="g113503"
           transform="translate(328.335,254.9951)">
          <path
             d="m 0,0 52.379,52.379 c 1.654,1.654 4.361,1.654 6.018,0 l 4.535,-4.534 c 1.654,-1.655 1.654,-4.365 0,-6.019 L 10.553,-10.553 c -1.655,-1.654 -4.365,-1.654 -6.019,0 L 0,-6.019 C -1.655,-4.364 -1.655,-1.654 0,0"
             style="fill:#cc3300;fill-opacity:1;fill-rule:evenodd;stroke:none"
             id="path113505" />
        </g>
        <g
           id="g113507"
           transform="translate(387.2178,292.7725)">
          <path
             d="m 0,0 -44.281,-44.279 -3.625,3.622 c -1.08,1.083 -1.08,2.85 0,3.932 L -7.56,3.625 c 1.083,1.08 2.853,1.08 3.936,0 z"
             style="fill:#701c00;fill-opacity:1;fill-rule:evenodd;stroke:none"
             id="path113509" />
        </g>
        <g
           id="g113511"
           transform="translate(342.9365,248.4932)">
          <path
             d="m 0,0 -3.552,3.046 c -1.335,1.143 -2.29,2.95 -0.377,4.875 l 40.183,40.436 c 1.294,1.303 3.92,1.816 5.34,-0.224 l 2.687,-3.854 -3.624,3.625 c -1.083,1.08 -2.852,1.08 -3.935,0 L -3.625,7.555 c -1.08,-1.082 -1.08,-2.85 0,-3.933 z"
             style="fill:#a32900;fill-opacity:1;fill-rule:evenodd;stroke:none"
             id="path113513" />
        </g>
        <g
           id="g113515"
           transform="translate(376.4238,223.5742)">
          <path
             d="m 0,0 35.708,35.71 c 2.597,2.597 6.843,2.595 9.438,0 L 74.72,6.137 c 2.596,-2.596 2.596,-6.842 0,-9.437 L 39.01,-39.009 c -2.594,-2.596 -6.84,-2.596 -9.437,0 L 0,-9.436 C -2.594,-6.84 -2.594,-2.594 0,0"
             style="fill:#333333;fill-opacity:1;fill-rule:evenodd;stroke:none"
             id="path113517" />
        </g>
        <g
           id="g113519"
           transform="translate(376.4238,223.5742)">
          <path
             d="m 0,0 35.708,35.71 c 2.597,2.595 6.843,2.595 9.438,0 L 71.259,9.598 c 2.596,-2.596 2.596,-6.842 0,-9.439 L 35.552,-35.548 c -2.597,-2.597 -6.843,-2.597 -9.44,0 L 0,-9.436 C -2.594,-6.84 -2.594,-2.594 0,0"
             style="fill:#212121;fill-opacity:1;fill-rule:evenodd;stroke:none"
             id="path113521" />
        </g>
        <g
           id="g113523"
           transform="translate(257.21,319.8818)">
          <path
             d="m 0,0 58.617,58.617 c 3.219,3.216 3.219,8.482 0,11.699 l -7.976,7.977 c -1.646,1.646 -3.83,2.449 -6.001,2.413 -5.281,-0.096 -9.863,1.752 -13.599,5.487 l -2.278,2.279 c -3.738,3.735 -5.585,8.317 -5.49,13.598 0.04,2.172 -0.767,4.358 -2.41,6.003 L -2.004,130.94 c -3.219,3.216 -27.894,22.626 -31.11,19.411 L -91.734,91.73 c -3.215,-3.215 16.195,-27.891 19.411,-31.109 l 22.867,-22.867 c 1.647,-1.646 3.831,-2.448 6.003,-2.41 5.28,0.095 9.862,-1.752 13.599,-5.49 l 2.278,-2.279 c 3.735,-3.735 5.583,-8.317 5.487,-13.598 -0.036,-2.172 0.767,-4.355 2.412,-6 L -11.699,0 C -8.481,-3.219 -3.216,-3.219 0,0"
             style="fill:#4d4d4d;fill-opacity:1;fill-rule:evenodd;stroke:none"
             id="path113525" />
        </g>
        <g
           id="g113527"
           transform="translate(187.1172,412.8838)">
          <path
             d="m 0,0 35.71,35.707 c 2.595,2.597 6.843,2.597 9.436,0 L 74.72,6.132 c 2.596,-2.594 2.596,-6.84 0,-9.437 L 39.013,-39.012 c -2.597,-2.596 -6.843,-2.596 -9.437,0 L 0,-9.438 C -2.596,-6.845 -2.596,-2.597 0,0"
             style="fill:#333333;fill-opacity:1;fill-rule:evenodd;stroke:none"
             id="path113529" />
        </g>
        <g
           id="g113531"
           transform="translate(187.1172,412.8838)">
          <path
             d="m 0,0 35.708,35.707 c 2.597,2.597 6.845,2.597 9.438,0 L 71.259,9.595 c 2.596,-2.596 2.596,-6.845 0,-9.439 L 35.554,-35.551 c -2.597,-2.596 -6.845,-2.596 -9.442,0 L 0,-9.441 C -2.594,-6.845 -2.596,-2.597 0,0"
             style="fill:#212121;fill-opacity:1;fill-rule:evenodd;stroke:none"
             id="path113533" />
        </g>
        <g
           id="g113535"
           transform="translate(281.8994,333.2441)">
          <path
             d="m 0,0 c -2.771,-2.769 -2.771,-7.304 0,-10.072 l 23.675,-23.677 c 2.77,-2.772 7.303,-2.772 10.071,0 l 20.569,20.567 c 2.771,2.77 2.771,7.301 0,10.073 L 30.638,20.565 c -2.769,2.772 -7.304,2.772 -10.073,0 z M -17.52,-6.196 26.761,38.086 62.673,2.174 c 5.038,-5.038 5.038,-13.285 0,-18.323 L 36.715,-42.107 c -5.038,-5.039 -13.285,-5.039 -18.323,0 z"
             style="fill:#cccccc;fill-opacity:1;fill-rule:evenodd;stroke:none"
             id="path113537" />
        </g>
        <g
           id="g113539"
           transform="translate(319.5361,292.0576)">
          <path
             d="m 0,0 -0.922,-0.921 c -5.038,-5.038 -13.285,-5.038 -18.323,0 l -0.999,0.998 -6.486,20.128 12.768,-12.768 c 2.771,-2.771 7.303,-2.771 10.071,0 l 1.131,1.13 z M 14.592,14.593 3.969,3.97 1.209,12.537 11.83,23.157 Z m -32.594,57.554 7.126,7.126 6.822,-6.823 6.487,-20.13 -9.432,9.432 c -2.182,2.184 -5.456,2.646 -8.103,1.392 z m -19.258,-19.259 15.291,15.291 2.76,-8.565 -15.292,-15.292 z"
             style="fill:#dedede;fill-opacity:1;fill-rule:evenodd;stroke:none"
             id="path113541" />
        </g>
        <g
           id="g113543"
           transform="translate(160.2334,415.5703)">
          <path
             d="m 0,0 -6.449,6.45 c -3.528,3.527 -3.528,9.274 0,12.8 l 47.104,47.104 c 3.518,3.521 9.283,3.521 12.8,0 l 6.449,-6.449 c 1.985,-1.981 -3.962,-7.927 -5.945,-5.946 l -6.45,6.452 c -0.252,0.252 -0.658,0.25 -0.91,0 L -0.506,13.304 c -0.243,-0.243 -0.243,-0.665 0,-0.908 L 5.946,5.946 C 7.925,3.963 1.981,-1.983 0,0"
             style="fill:#cccccc;fill-opacity:1;fill-rule:evenodd;stroke:none"
             id="path113545" />
        </g>
        <g
           id="g113547"
           transform="translate(419.4688,168.2246)">
          <path
             d="M 0,0 48.015,48.015 114.749,-18.718 66.733,-66.733 Z"
             style="fill:#999999;fill-opacity:1;fill-rule:evenodd;stroke:none"
             id="path113549" />
        </g>
        <g
           id="g113551"
           transform="translate(424.3096,173.0654)">
          <path
             d="m 0,0 8.978,8.979 66.734,-66.734 -8.979,-8.978 z"
             style="fill:#808080;fill-opacity:1;fill-rule:evenodd;stroke:none"
             id="path113553" />
        </g>
        <g
           id="g113555"
           transform="translate(438.9863,187.7441)">
          <path
             d="M 0,0 C 2.993,2.991 5.987,5.987 8.978,8.979 31.224,-13.267 53.469,-35.51 75.714,-57.755 72.72,-60.748 69.727,-63.742 66.733,-66.733 44.49,-44.49 22.245,-22.245 0,0"
             style="fill:#808080;fill-opacity:1;fill-rule:evenodd;stroke:none"
             id="path113557" />
        </g>
        <g
           id="g113559"
           transform="translate(453.6631,202.4209)">
          <path
             d="m 0,0 8.98,8.979 66.734,-66.734 -8.979,-8.978 z"
             style="fill:#808080;fill-opacity:1;fill-rule:evenodd;stroke:none"
             id="path113561" />
        </g>
        <g
           id="g113563"
           transform="translate(70.125,472.7402)">
          <path
             d="M 0,0 48.015,48.016 137.163,3.695 89.146,-44.32 Z"
             style="fill:#999999;fill-opacity:1;fill-rule:evenodd;stroke:none"
             id="path113565" />
        </g>
        <g
           id="g113567"
           transform="translate(74.9658,477.5811)">
          <path
             d="M 0,0 8.98,8.979 98.127,-35.34 89.148,-44.317 Z"
             style="fill:#808080;fill-opacity:1;fill-rule:evenodd;stroke:none"
             id="path113569" />
        </g>
        <g
           id="g113571"
           transform="translate(89.6445,492.2598)">
          <path
             d="M 0,0 C 2.991,2.991 5.986,5.985 8.978,8.979 38.694,-5.796 68.41,-20.57 98.127,-35.342 95.131,-38.335 92.14,-41.329 89.146,-44.322 59.433,-29.548 29.716,-14.773 0,0"
             style="fill:#808080;fill-opacity:1;fill-rule:evenodd;stroke:none"
             id="path113573" />
        </g>
        <g
           id="g113575"
           transform="translate(104.3213,506.9346)">
          <path
             d="m 0,0 8.977,8.98 89.147,-44.32 -8.978,-8.978 z"
             style="fill:#808080;fill-opacity:1;fill-rule:evenodd;stroke:none"
             id="path113577" />
        </g>
      </g>
    </g>
  </g>
</svg>
